PathFileType	4	(X/Y/Z)	s06c0103.trc
DataRate	CameraRate	NumFrames	NumMarkers	Units	OrigDataRate	OrigDataStartFrame	OrigNumFrames
200	200	4	48	mm	200	0	2000
Frame#	Time	racr			lacr			c7			jug			rlel			rdr			llel			ldr			s2			lic			ric			lasi			rasi			rpsi			lpsi			rgt			lgt			rth1			rth2			rth3			rth4			rlfc			rmfc			rsh1			rsh2			rsh3			rsh4			rlmal			rcal			rtoe			rmt5			lth1			lth2			lth4			lth3			llfc			lmfc			llmal			lcal			lmt5			lsh1			lsh2			lsh3			lsh4			ltoe			SBIKE			LBIKE			RBIKE			
		X1	Y1	Z1	X2	Y2	Z2	X3	Y3	Z3	X4	Y4	Z4	X5	Y5	Z5	X6	Y6	Z6	X7	Y7	Z7	X8	Y8	Z8	X9	Y9	Z9	X10	Y10	Z10	X11	Y11	Z11	X12	Y12	Z12	X13	Y13	Z13	X14	Y14	Z14	X15	Y15	Z15	X16	Y16	Z16	X17	Y17	Z17	X18	Y18	Z18	X19	Y19	Z19	X20	Y20	Z20	X21	Y21	Z21	X22	Y22	Z22	X23	Y23	Z23	X24	Y24	Z24	X25	Y25	Z25	X26	Y26	Z26	X27	Y27	Z27	X28	Y28	Z28	X29	Y29	Z29	X30	Y30	Z30	X31	Y31	Z31	X32	Y32	Z32	X33	Y33	Z33	X34	Y34	Z34	X35	Y35	Z35	X36	Y36	Z36	X37	Y37	Z37	X38	Y38	Z38	X39	Y39	Z39	X40	Y40	Z40	X41	Y41	Z41	X42	Y42	Z42	X43	Y43	Z43	X44	Y44	Z44	X45	Y45	Z45	X46	Y46	Z46	X47	Y47	Z47	X48	Y48	Z48	
0	0.0000	446.305263	1331.923016	-58.753591	463.239637	1341.752690	-392.047426	421.754242	1438.491395	-223.146702	470.106548	1286.969159	-217.589776	528.406771	1085.730615	22.579045	719.476636	922.459134	-38.713774	521.186084	1080.284402	-467.010377	714.675569	923.349061	-408.929077	-42.675314	1145.682788	-217.521162	140.303849	1092.524336	-378.165606	116.977113	1102.256486	-42.881018	143.055320	1028.230058	-348.558434	131.429098	1046.534413	-74.077617	-7.109911	1177.718466	-182.083044	-5.085331	1176.914141	-242.853315	65.873875	1051.929313	-9.352238	87.244225	1032.122964	-409.155906	167.341652	984.439301	-10.815774	255.280902	960.458342	-15.070363	316.054704	898.491290	-18.850106	270.125634	990.679153	-32.456033	382.989615	816.138285	-40.003577	382.517030	791.565442	-150.890369	352.957037	697.679428	-15.714038	349.898785	612.252698	-37.016465	307.618869	536.377812	-40.374578	372.297336	610.555364	-69.284733	278.745759	457.216536	-45.552141	214.122012	438.407345	-97.010036	483.001820	376.718130	-98.250938	385.097956	371.441699	-27.895616	133.286101	922.188824	-419.363171	202.052481	870.548699	-412.192115	230.144937	891.470034	-399.645684	236.473690	787.316832	-407.549775	263.894777	679.621029	-382.003877	262.649412	660.997370	-266.397185	15.763710	403.596527	-379.478785	-57.478737	419.186774	-332.803018	78.642544	274.788303	-398.857137	198.589795	597.073891	-405.424976	158.707716	521.463893	-387.777216	84.648572	471.860052	-389.247347	177.955120	508.860326	-356.269784	152.442006	232.559608	-339.087571	-204.203617	865.510264	-211.028395	-50.476496	80.330915	-410.937731	-50.078652	79.664859	-13.507622	
1	0.0050	446.332462	1331.957491	-58.788674	463.249796	1341.732608	-392.095214	421.751813	1438.495444	-223.198829	470.143213	1286.953843	-217.609658	528.441182	1085.746464	22.549585	719.488629	922.468398	-38.722007	521.163765	1080.250545	-467.015162	714.671809	923.334967	-408.935374	-42.675486	1145.705309	-217.541568	140.313106	1092.500059	-378.204753	116.983836	1102.263343	-42.905832	143.067848	1028.191414	-348.566250	131.424157	1046.533773	-74.094545	-7.093562	1177.721317	-182.105379	-5.075393	1176.915279	-242.889743	65.894253	1051.957519	-9.364983	87.241098	1032.088781	-409.169924	167.357842	984.458853	-10.840635	255.296918	960.504381	-15.061505	316.094351	898.531192	-18.892573	270.135689	990.694925	-32.460097	383.034244	816.195476	-40.023897	382.531621	791.595433	-150.908147	352.988864	697.716220	-15.722180	349.900888	612.311329	-37.032682	307.617845	536.431622	-40.370388	372.299018	610.595927	-69.294308	278.734298	457.259217	-45.539998	214.105360	438.486355	-97.013402	482.981266	376.771224	-98.255079	385.110164	371.502164	-27.904721	133.253459	922.137705	-419.394025	202.020974	870.508346	-412.220315	230.106280	891.431068	-399.675663	236.431073	787.261821	-407.545016	263.831026	679.568976	-382.043507	262.607637	660.960527	-266.421885	15.732013	403.513965	-379.473310	-57.510110	419.117849	-332.804898	78.642204	274.753569	-398.857711	198.546686	597.027007	-405.439610	158.669131	521.385656	-387.769303	84.598736	471.808818	-389.270635	177.918986	508.801818	-356.301042	152.456789	232.529802	-339.086545	-204.210304	865.512399	-211.035413	-50.477262	80.341058	-410.933888	-50.189199	79.946323	-13.307011	
2	0.0100	446.359422	1332.006307	-58.817104	463.274891	1341.700484	-392.138138	421.739812	1438.499370	-223.237363	470.166716	1286.954028	-217.643432	528.459109	1085.772479	22.537528	719.485383	922.467203	-38.719140	521.129367	1080.228417	-467.005327	714.678950	923.337286	-408.935368	-42.665240	1145.697449	-217.574130	140.303998	1092.477160	-378.253473	116.982362	1102.265648	-42.907438	143.062216	1028.154349	-348.602072	131.434026	1046.542253	-74.101809	-7.105463	1177.727054	-182.119010	-5.076811	1176.917628	-242.927140	65.912096	1051.962205	-9.386857	87.224908	1032.047716	-409.175384	167.376209	984.483313	-10.855899	255.313260	960.534970	-15.094278	316.126868	898.544833	-18.889183	270.153811	990.713979	-32.499636	383.052740	816.234748	-40.041347	382.571069	791.647126	-150.922227	353.008326	697.772754	-15.720480	349.917687	612.337086	-37.053092	307.622408	536.487072	-40.366974	372.320645	610.650244	-69.308364	278.719504	457.326719	-45.550422	214.088809	438.539912	-97.006758	482.973687	376.830084	-98.252630	385.111356	371.536935	-27.913639	133.237196	922.107626	-419.406359	201.995603	870.463125	-412.233127	230.090028	891.392269	-399.707482	236.393665	787.213338	-407.554151	263.775522	679.524301	-382.077190	262.563374	660.931318	-266.466560	15.708187	403.450035	-379.479570	-57.527912	419.046739	-332.805333	78.641498	274.714435	-398.862337	198.507033	596.971452	-405.447897	158.625963	521.334289	-387.800530	84.585659	471.749042	-389.269720	177.894380	508.744321	-356.318258	152.469844	232.509264	-339.105203	-204.211690	865.514882	-211.023996	-50.471778	80.342741	-410.942764	-50.182013	79.923794	-13.325664	
3	0.0150	446.962397	1332.047369	-58.744062	463.284281	1341.712518	-392.184630	421.730483	1438.507018	-223.296445	470.191948	1286.947180	-217.658413	528.482017	1085.789616	22.515687	719.492259	922.479521	-38.713620	521.206558	1080.297060	-467.164047	714.669088	923.332122	-408.925928	-42.614283	1146.019685	-217.713313	140.317293	1092.435953	-378.274783	117.041657	1102.860085	-42.627071	143.076189	1028.125125	-348.621137	132.069541	1047.335656	-73.903922	-7.265438	1177.716300	-182.256240	-5.073214	1176.915797	-242.940752	65.930314	1051.878040	-9.379743	87.218326	1032.048717	-409.186222	167.384086	984.500576	-10.877486	255.476150	960.769124	-15.057744	316.076785	898.484873	-18.789817	270.311635	990.698727	-32.464885	383.087923	816.283982	-40.057264	382.594518	791.689624	-150.933889	353.030555	697.836902	-15.740924	349.784542	612.307249	-37.133605	307.627311	536.541437	-40.389292	372.529267	610.539791	-69.326524	278.730220	457.300426	-45.494650	214.077499	438.601804	-97.006487	482.952953	376.894550	-98.257979	385.089681	371.613793	-27.912033	133.219507	922.062585	-419.433152	202.210960	869.685316	-411.917974	230.029750	891.274640	-399.546030	236.360277	787.160776	-407.569034	263.823341	679.350297	-382.164716	262.522836	660.894766	-266.479172	15.681764	403.375737	-379.484983	-57.551689	418.977758	-332.806604	78.666265	274.663725	-398.864505	198.468338	596.927218	-405.479965	158.505579	521.164041	-387.796005	84.378364	471.959821	-389.759720	177.843303	508.700229	-356.348238	152.487150	232.470151	-339.085316	-204.266528	865.477512	-211.161690	-50.479438	80.347200	-410.940635	-50.168587	79.919390	-13.333491	
